<?xml version="1.0" encoding="UTF-8" standalone="no"?>
<!DOCTYPE svg PUBLIC "-//W3C//DTD SVG 1.1//EN" "http://www.w3.org/Graphics/SVG/1.1/DTD/svg11.dtd">
<svg
   width="40"
   height="40"
   viewBox="0 0 25 25"
   version="1.1"
   xmlns="http://www.w3.org/2000/svg">
  <title>keine thermische Belastung</title>
  <path
     stroke="none" fill="#3ea72d"
     d="m6,21.5 m-0.75,-4.701288 v-6.206264 h2 v6.206264 a2.5,2.5 0 1 1 -2,0 z" />
  <path
     stroke="currentColor" stroke-width="0.75" fill="none"
     d="m6,21.5 m-0.75,-4.791288 v-12.206264 a1,1 0 0 1 2,0 v12.206264 a2.5,2.5 0 1 1 -2,0 z m2,-2.206264 h1 m-1,-4 h1 m-1,-4 h1" />

  <path
     stroke="#3ea72d" stroke-width="2" stroke-linecap="round" 
     stroke-linejoin="round" fill="none"
     d="m12.5,12.5 a15,15 0 0 1 3,6 a30,30 0 0 1 6,-12" />
</svg>
