<?xml version="1.0" encoding="UTF-8" standalone="no"?>
<!DOCTYPE svg PUBLIC "-//W3C//DTD SVG 1.1//EN" "http://www.w3.org/Graphics/SVG/1.1/DTD/svg11.dtd">
<svg
   width="50"
   height="50"
   viewBox="0 0 50 50"
   version="1.1"
   xmlns="http://www.w3.org/2000/svg"
   xmlns:svg="http://www.w3.org/2000/svg">
  <desc>seek shadow</desc>
  <g
     fill-opacity="1" fill-rule="nonzero"
     stroke-width="0.655" stroke-linecap="butt" stroke-linejoin="bevel"
     stroke-miterlimit="10.3" stroke-dasharray="none" stroke-opacity="1">
    <path
       d="m4,0 h42 a4,4 0 0 1 4,4 v42 a4,4 0 0 1 -4,4 h-42 a4,4 0 0 1 -4,-4 v-42 a4,4 0 0 1 4,-4 z"
       fill="#ffffff" stroke="none" />
    <path
       d="m1.31,37.866581 a20.734379,4.491220 0 0 1 22.803494,-1.005319 l3.278921,6.622154 l1.288214,-0.21534 l-3.099329,-6.259447 a20.734379,4.491220 0 1 1 -24.271301,7.138037 z"
       fill="#0a3f7f" stroke="none" />
    <path
       d="m23.385319,19.615953 l-2.114889,8.086115 a2.091801,2.091801 0 0 0 0.305344,4.033978 l5.816642,11.747369 l1.288214,-0.21534 l-5.799937,-11.713632 a2.091801,2.091801 0 0 0 -0.312219,-3.875303 l1.947532,-7.446237"
       fill="none" stroke="#0a3f7f" />
    <path
       d="m 27.145085,7.447973 -0.940742,2.785619 1.440911,0.549305 0.940742,-2.785619 z M 26.438081,9.541474 C 20.62688,7.2542181 6.983448,5.4486352 5.47965,9.418434 c 2.8867866,1.051393 4.4591715,2.284919 7.508696,6.012281 3.764909,1.164581 6.773435,1.378888 12.929441,5.567059 4.312665,0.54209 8.161306,0.0989 13.495629,2.810314 3.898803,-1.396709 5.319359,-1.026857 7.258324,-1.026541 -1.503462,-3.748693 -4.460963,-7.611999 -18.767832,-12.764545 m -1.699564,0.216589 c -4.816117,0.307912 -9.197947,2.121787 -13.215997,5.197124 m 13.997992,-4.899011 -1.068552,10.46607 m 1.764552,-10.324687 c 7.112971,3.740202 10.168898,8.288784 11.731077,13.135001"
       fill="none" stroke="#0a3f7f" />
    <path
       d="m4,0.655 h42 a3.345,3.345 0 0 1 3.345,3.345 v42 a3.345,3.345 0 0 1 -3.345,3.345 h-42 a3.345,3.345 0 0 1 -3.345,-3.345 v-42 a3.345,3.345 0 0 1 3.345,-3.345 z"
       fill="none" stroke="#0a3f7f" stroke-width="1.31" />
  </g>
</svg>
