<?xml version="1.0" encoding="UTF-8" standalone="no"?>
<!DOCTYPE svg PUBLIC "-//W3C//DTD SVG 1.1//EN" "http://www.w3.org/Graphics/SVG/1.1/DTD/svg11.dtd">
<svg
   width="50"
   height="50"
   viewBox="0 0 50 50"
   version="1.1"
   xmlns="http://www.w3.org/2000/svg"
   xmlns:svg="http://www.w3.org/2000/svg">
  <desc>use clothing, hat and glasses</desc>
  <g
     fill-opacity="1" fill-rule="nonzero">
    <path
       d="m4,0 h42 a4,4 0 0 1 4,4 v42 a4,4 0 0 1 -4,4 h-42 a4,4 0 0 1 -4,-4 v-42 a4,4 0 0 1 4,-4 z"
       fill="#ffffff" stroke="none" />
    <g
       fill="#0a3f7f" stroke="#00008d" stroke-width="0.355" 
       stroke-linecap="butt" stroke-linejoin="bevel"
       stroke-miterlimit="10.3" stroke-dasharray="none" stroke-opacity="1">
      <path
         d="m24.967,12.855 0.972,-0.024 c 1.367,-0.163 5.118,-0.652 6.085,0.433 l 0.059,0.135 0.095,0.965 -0.028,0.139 c -0.736,1.324 -2.729,1.617 -4.006,1.741 -2.039,0.196 -2.426,-2.326 -3.172,-2.326 -0.276,0 -0.4,0.084 -0.672,0.556 -0.528,0.911 -1.332,1.884 -2.507,1.771 -1.277,-0.123 -3.271,-0.417 -4.006,-1.741 l -0.028,-0.139 0.095,-0.965 0.058,-0.135 c 0.18,-0.201 0.421,-0.343 0.652,-0.421 1.42,-0.48 3.942,-0.19 5.446,-0.011 z m -0.003,0.452 -1.003,-0.008 c 0,0 -1.603,-0.191 -2.396,-0.239 -0.632,-0.038 -2.713,-0.048 -3.257,0.468 l -0.081,0.804 c 0.717,1.105 2.506,1.336 3.61,1.443 0.967,0.092 1.636,-0.802 2.064,-1.541 0.253,-0.436 0.502,-0.723 1.068,-0.723 1.198,0 1.334,2.437 3.131,2.264 1.105,-0.107 2.894,-0.338 3.61,-1.443 l -0.079,-0.804 c -0.852,-0.806 -4.489,-0.368 -5.655,-0.23 l -0.981,0.008 z"
         />
      <path
         d="m31.728,19.475 0.063,0.005 4.855,2.254 0.045,0.028 11.815,9.312 0.047,0.321 -3.743,5.399 -0.309,0.066 -9.564,-5.855 -1.256,15.342 -0.232,0.215 -7.809,-0.059 -9.15,0.059 -0.232,-0.215 -1.256,-15.342 -9.564,5.855 -0.309,-0.066 -3.744,-5.399 0.048,-0.321 11.814,-9.312 0.046,-0.028 4.855,-2.254 0.063,-0.005 1.071,-1.575 0.263,-0.042 v -0.052 h 10.936 v 0.066 l 0.177,0.028 z m -13.616,0.539 -4.603,2.137 -11.618,9.159 3.492,5.036 9.7,-5.937 0.35,0.182 1.269,15.503 h 16.535 l 1.269,-15.503 0.35,-0.182 9.699,5.937 3.492,-5.036 -11.619,-9.159 -4.602,-2.136 -0.664,3.813 -0.346,0.162 -4.1,-2.463 -1.408,4.994 -0.443,0.005 -1.582,-5.038 -4.163,2.5 -0.346,-0.162 z m 0.434,-0.206 0.627,3.604 3.862,-2.319 -3.511,-2.723 z m 12.846,0 -0.978,-1.438 -3.51,2.723 3.861,2.319 z m -1.618,-1.533 h -9.609 l 3.424,2.657 0.081,0.234 1.405,4.478 1.284,-4.558 -0.011,-0.154 0.068,-0.053 0.031,-0.111 0.082,0.024 z"
         />
      <path
         d="m24.853,8.935 c 1.801,0 3.801,0.078 5.634,0.177 l -0.385,-1.325 c -1.74,-0.111 -3.528,-0.182 -5.249,-0.182 -1.637,0 -3.365,0.093 -5.025,0.206 l -0.384,1.326 c 0.954,-0.055 3.693,-0.202 5.409,-0.202 z m 5.871,0.696 c -1.906,-0.1 -3.99,-0.226 -5.871,-0.226 -1.828,0 -3.773,0.103 -5.627,0.214 l -2.607,1.368 c 1.332,-0.102 4.599,-0.27 8.349,-0.27 3.749,0 7.017,0.167 8.349,0.27 z m 0.253,-0.491 0.089,0.166 4.105,1.812 -0.21,0.41 c 0,0 -4.624,-0.34 -9.992,-0.34 -5.369,0 -9.993,0.34 -9.993,0.34 l -0.209,-0.41 4.113,-1.819 0.073,-0.134 1.432,-4.947 0.196,-0.167 c 2.703,-0.309 5.627,-0.31 8.772,0 l 0.199,0.167 z m -1.013,-1.833 -0.812,-2.804 c -2.992,-0.286 -5.78,-0.287 -8.366,-0.003 l -0.82,2.831 c 0.904,-0.058 3.224,-0.196 4.887,-0.196 1.676,0 3.414,0.067 5.111,0.172 z"
         />
    </g>
    <path
       d="m4,0.655 h42 a3.345,3.345 0 0 1 3.345,3.345 v42 a3.345,3.345 0 0 1 -3.345,3.345 h-42 a3.345,3.345 0 0 1 -3.345,-3.345 v-42 a3.345,3.345 0 0 1 3.345,-3.345 z"
       fill="none" stroke="#0a3f7f" stroke-width="1.31" />
  </g>
</svg>
