<?xml version="1.0" encoding="UTF-8" standalone="no"?>
<!DOCTYPE svg PUBLIC "-//W3C//DTD SVG 1.1//EN" "http://www.w3.org/Graphics/SVG/1.1/DTD/svg11.dtd">
<svg
   width="26.04868"
   height="50.00000"
   viewBox="0 0 9.8319197 18.8722"
   version="1.1"
   xmlns="http://www.w3.org/2000/svg"
   xmlns:svg="http://www.w3.org/2000/svg">
  <desc>UV index 9</desc>
  <g
     fill-opacity="1" fill-rule="nonzero" stroke="none">
    <path
       d="m1.45486,-0.000044 h 6.92185 c 0.80363,0 1.45521,0.65122 1.45521,1.45485 v 15.96249 c 0,0.80363 -0.65158,1.45486 -1.45521,1.45486 h -6.92185 c -0.80363,0 -1.45486,-0.65123 -1.45486,-1.45486 v -15.96249 c 0,-0.80363 0.65123,-1.45485 1.45486,-1.45485"
       fill="#0a3f7f" />
    <path
       d="m1.51564,3.549864 c 0,0.79375 0.71106,1.32705 1.60817,1.32705 0.89297,0 1.60403,-0.5333 1.60403,-1.32705 v -2.53007 h -0.68213 v 2.46393 c 0,0.52917 -0.401,0.81442 -0.9219,0.81442 -0.5209,0 -0.92191,-0.28525 -0.92191,-0.81442 v -2.46393 h -0.68626 z m 5.02915,1.29398 h 0.53743 l 1.48828,-3.82405 h -0.72347 l -1.02526,2.91041 h -0.0165 l -1.02526,-2.91041 h -0.72347 z m 0,0"
       fill="#ffffff"
       aria-label="UV" />
    <path
       d="m1.61279,6.790969 h 0.21911 v -1.51722 h -0.21911 z m 0.83096,0 h 0.21911 v -1.079 h 0.004 l 0.64492,1.079 h 0.20671 v -1.51722 h -0.21911 v 1.079 l -0.64905,-1.079 h -0.20671 z m 1.68569,0 h 0.48782 c 0.21498,0 0.3638,-0.11162 0.44649,-0.25218 0.0661,-0.10749 0.0785,-0.16537 0.0785,-0.50436 0,-0.31833 -0.004,-0.37621 -0.0744,-0.50436 -0.091,-0.16537 -0.24805,-0.25632 -0.43822,-0.25632 h -0.50022 z m 0.2191,-1.29811 h 0.26045 c 0.11576,0 0.18604,0.0331 0.25218,0.12816 0.0579,0.0827 0.0662,0.14882 0.0662,0.42168 0,0.28112 -0.008,0.32246 -0.0537,0.401 -0.0579,0.0868 -0.1447,0.12816 -0.26459,0.12816 h -0.26045 z m 1.35909,1.29811 h 0.91778 v -0.21911 h -0.69867 v -0.44235 h 0.59531 v -0.2067 h -0.59531 v -0.42995 h 0.69867 v -0.21911 h -0.91778 z m 2.13217,0 h 0.24392 l -0.43822,-0.77721 0.41341,-0.74001 h -0.24805 l -0.28525,0.52917 -0.28525,-0.52917 h -0.24392 l 0.40928,0.74001 -0.43821,0.77721 h 0.24391 l 0.31419,-0.56224 z m 0,0"
       fill="#ffffff"
       aria-label="INDEX" />
    <path
       d="m7.86047,12.336576 c 0.29766,-0.53743 0.44648,-1.14928 0.44648,-1.77767 0,-2.00091 -1.63297,-3.24114 -3.26595,-3.24114 -1.75286,0 -3.46852,0.97151 -3.46852,3.40651 0,2.05879 1.31878,2.95589 2.80707,2.95589 0.28112,0 0.64492,-0.0455 0.88883,-0.13643 h 0.0331 l -2.47633,4.49379 h 1.88515 z m -2.91868,0 c -0.92605,0 -1.68672,-0.55397 -1.68672,-1.74873 0,-1.26917 0.9095,-1.74459 1.68672,-1.74459 1.02112,0 1.68258,0.54983 1.68258,1.74459 0,1.19476 -0.76068,1.74873 -1.68258,1.74873 z m 0,0"
       fill="#e53210"
       aria-label="9" />
  </g>
</svg>
