<?xml version="1.0" encoding="UTF-8" standalone="no"?>
<!DOCTYPE svg PUBLIC "-//W3C//DTD SVG 1.1//EN" "http://www.w3.org/Graphics/SVG/1.1/DTD/svg11.dtd">
<svg
   width="50"
   height="50"
   viewBox="0 0 50 50"
   version="1.1"
   xmlns="http://www.w3.org/2000/svg"
   xmlns:svg="http://www.w3.org/2000/svg">
  <g
     fill-opacity="1" fill-rule="nonzero"
     stroke-width="0.655" stroke-linecap="butt" stroke-linejoin="bevel"
     stroke-miterlimit="10.3" stroke-dasharray="none" stroke-opacity="1">
    <path
       d="m4,0 h42 a4,4 0 0 1 4,4 v42 a4,4 0 0 1 -4,4 h-42 a4,4 0 0 1 -4,-4 v-42 a4,4 0 0 1 4,-4 z"
       fill="#00008d" stroke="none" />
    <path
       d="m25.635252,10.492245 l-21.000574,12.210070 h42.147005 z m-16.104719,12.210070 v13.863896 h31.914464 v-13.863896 m-18.204215,13.863896 v-10.667166 h4.736749 v10.667166 m-15.294892,-10.667166 v6.563391 h7.258268 v-6.563391 z m18.399867,0 v6.563391 h7.258268 v-6.563391 z"
       fill="none" stroke="#ffffff" />
    <path
       d="m9.530533,36.566212 v-4.373814 l-10.1464402,2.852277 l-1.134968,3.265111 l-1.294706,0.242820 l14.124376,3.185258 l27.878949,-2.770732 l-0.595040,-0.336258 h-2.260345 l5.743598,-1.871087 z"
       fill="#ffffff" stroke="none" />
  </g>
</svg>
