<?xml version="1.0" encoding="UTF-8" standalone="no"?>
<!DOCTYPE svg PUBLIC "-//W3C//DTD SVG 1.1//EN" "http://www.w3.org/Graphics/SVG/1.1/DTD/svg11.dtd">
<svg xmlns="http://www.w3.org/2000/svg" version="1.1" width="128" height="100" viewBox="-64 -50 128 100"><g stroke-width="3"><path stroke="#828487" fill="#828487" d="M -26.349999999999998,8.5 a17.0,17.0 0 1 1 4.1482281485,-33.486121535 a20.4,20.4 0 0 1 36.7205047215,-8.067213252 a13.8125,13.8125 0 0 1 14.381267130000001,8.403334786999999 a17.0,17.0 0 0 1 -5.3082483,33.15 z" /><path stroke="#66a1ba" stroke-width="1.5" stroke-linecap="round" fill="none" d="M -15,20 l0.0,20.0 m-8.66025404,-15.0 l17.32050808,10.0 m-17.32050808,-0.0 l17.32050808,-10.0 m-8.66025404,-5.0 m2.88675135,1.66666667 l-2.88675135,1.66666667 l-2.88675135,-1.66666667 m2.88675135,-1.66666667 m-8.66025404,5.0 m2.88675135,-1.66666667 l-0.0,3.33333333 l-2.88675135,1.66666667 m0.0,-3.33333333 m-0.0,10.0 m0.0,-3.33333333 l2.88675135,1.66666667 l0.0,3.33333333 m-2.88675135,-1.66666667 m8.66025404,5.0 m-2.88675135,-1.66666667 l2.88675135,-1.66666667 l2.88675135,1.66666667 m-2.88675135,1.66666667 m8.66025404,-5.0 m-2.88675135,1.66666667 l0.0,-3.33333333 l2.88675135,-1.66666667 m-0.0,3.33333333 m0.0,-10.0 m-0.0,3.33333333 l-2.88675135,-1.66666667 l-0.0,-3.33333333 m2.88675135,1.66666667 " /><path stroke="#66a1ba" fille="none" stroke-dasharray="4 9" stroke-width="2" d="M13.5,40 l-22.0,-30 m7.5,0 l22.0,30 m7.5,0 l-22.0,-30 m7.5,0 " /></g></svg>
