<svg xmlns="http://www.w3.org/2000/svg" version="1.1" width="15px" height="15px" viewBox="-7.5 -7.5 15 15"><path stroke="#66a1ba" stroke-width="1.0425" stroke-linecap="round" fill="none" d="M 0,-6.95 l 0.0,13.9 m -6.01887656,-10.425 l 12.03775311,6.95 m -12.03775311,-0.0 l 12.03775311,-6.95 m -6.01887656,-3.475 m 2.00629219,1.15833333 l -2.00629219,1.15833333 l -2.00629219,-1.15833333 m 2.00629219,-1.15833333 m -6.01887656,3.475 m 2.00629219,-1.15833333 l -0.0,2.31666667 l -2.00629219,1.15833333 m 0.0,-2.31666667 m -0.0,6.95 m 0.0,-2.31666667 l 2.00629219,1.15833333 l 0.0,2.31666667 m -2.00629219,-1.15833333 m 6.01887656,3.475 m -2.00629219,-1.15833333 l 2.00629219,-1.15833333 l 2.00629219,1.15833333 m -2.00629219,1.15833333 m 6.01887656,-3.475 m -2.00629219,1.15833333 l 0.0,-2.31666667 l 2.00629219,-1.15833333 m -0.0,2.31666667 m 0.0,-6.95 m -0.0,2.31666667 l -2.00629219,-1.15833333 l -0.0,-2.31666667 m 2.00629219,1.15833333 " /></svg>