<?xml version="1.0" encoding="UTF-8" standalone="no"?>
<!DOCTYPE svg PUBLIC "-//W3C//DTD SVG 1.1//EN" "http://www.w3.org/Graphics/SVG/1.1/DTD/svg11.dtd">
<svg xmlns="http://www.w3.org/2000/svg" version="1.1" width="128" height="100" viewBox="-64 -50 128 100"><g stroke-width="3"><path stroke="#828487" fill="#828487" d="M -26.349999999999998,8.5 a17.0,17.0 0 1 1 4.1482281485,-33.486121535 a20.4,20.4 0 0 1 36.7205047215,-8.067213252 a13.8125,13.8125 0 0 1 14.381267130000001,8.403334786999999 a17.0,17.0 0 0 1 -5.3082483,33.15 z" /><path stroke-width="2" stroke-linejoin="round" stroke="#f6bc68" fill="#f6bc68" d="M-4,2 l9.12538211,-21.49805304 l-12.39550268,3.32136493 l7.14107222,-16.82331189 h-8.81753557 l-4.1787982,21.49805304 l12.39550268,-3.32136493 z" /><path stroke="none" fill="#66a1ba" d="M -20,10 h5 l22.0,30 h-5 l-22.0,-30 z m 15,0 h5 l22.0,30 h-5 l-22.0,-30 z m 15,0 h5 l22.0,30 h-5 l-22.0,-30 z " /></g></svg>
