<?xml version="1.0" encoding="UTF-8" standalone="no"?>
<!DOCTYPE svg PUBLIC "-//W3C//DTD SVG 1.1//EN" "http://www.w3.org/Graphics/SVG/1.1/DTD/svg11.dtd">
<svg xmlns="http://www.w3.org/2000/svg" version="1.1" width="128" height="100" viewBox="-64 -50 128 100"><g stroke-width="3"><g stroke="#f6bc68"><circle cx="-32" cy="-18" r="14" fill="#f6bc68" /><path fill="none" d="M-13.0,-18.0 L-2.0,-18.0  M-18.564971157455602,-4.5649711574556004 L-10.78679656440357,3.2132034355964194  M-32.0,1.0 L-32.0,12.0  M-45.4350288425444,-4.5649711574556004 L-53.21320343559642,3.21320343559643  M-51.0,-18.0 L-62.0,-18.0  M-45.43502884254441,-31.435028842544398 L-53.21320343559643,-39.21320343559642  M-32.0,-37.0 L-32.00000000000001,-48.0  M-18.564971157455602,-31.435028842544412 L-10.78679656440358,-39.21320343559643 " /></g><g stroke="currentColor"><path fill="#4c7ed3" d="M30,-20 L60,-10 L35,45 L0,20 Z" /><path fill="none" d="M20.0,-6.666666666666666 L51.666666666666664,8.333333333333332 M10.0,6.666666666666668 L43.33333333333333,26.666666666666664 M40.0,-16.666666666666668 L11.666666666666666,28.333333333333336 M50.0,-13.333333333333334 L23.333333333333332,36.66666666666667 " /></g><path stroke="none" fill="#d9040f" d="M12.5221792457,-45 l-5.890332427,20.050872142 l8.615384274,-4.4423084475 l-1.843385082,13.495015408 l-1.76127644,-2.5724914005 l1.357430431,8.4620914875 l4.939538604,-7.1346147915 l-2.5016605985,1.5554765695 l5.193969277,-19.122785598 l-9.2884629005,5.1153847395 l6.798077811,-15.4134609195 l-5.619282949,0.0068219795 Z" /></g></svg>
