<?xml version="1.0" encoding="UTF-8" standalone="no"?>
<!DOCTYPE svg PUBLIC "-//W3C//DTD SVG 1.1//EN" "http://www.w3.org/Graphics/SVG/1.1/DTD/svg11.dtd">
<svg xmlns="http://www.w3.org/2000/svg" version="1.1" width="128" height="100" viewBox="-64 -50 128 100"><g stroke-width="3"><path stroke="#da4935" fill="#da4935" d="M -30,-40 a 20.2222202,20.2222202 0 0 1 -17.1111094,30.3333303 a 18.6666648,18.6666648 0 1 0 17.1111094,-30.3333303 z" /><g stroke="currentColor"><path fill="#808080" d="M30,-20 L60,-10 L35,45 L0,20 Z" /><path fill="none" d="M20.0,-6.666666666666666 L51.666666666666664,8.333333333333332 M10.0,6.666666666666668 L43.33333333333333,26.666666666666664 M40.0,-16.666666666666668 L11.666666666666666,28.333333333333336 M50.0,-13.333333333333334 L23.333333333333332,36.66666666666667 " /></g><path stroke="none" fill="#808080" d="M12.5221792457,-45 l-5.890332427,20.050872142 l8.615384274,-4.4423084475 l-1.843385082,13.495015408 l-1.76127644,-2.5724914005 l1.357430431,8.4620914875 l4.939538604,-7.1346147915 l-2.5016605985,1.5554765695 l5.193969277,-19.122785598 l-9.2884629005,5.1153847395 l6.798077811,-15.4134609195 l-5.619282949,0.0068219795 Z" /></g></svg>
