<?xml version="1.0" encoding="UTF-8" standalone="no"?>
<!DOCTYPE svg PUBLIC "-//W3C//DTD SVG 1.1//EN" "http://www.w3.org/Graphics/SVG/1.1/DTD/svg11.dtd">
<svg xmlns="http://www.w3.org/2000/svg" version="1.1" width="146mm" height="208mm" viewBox="0 0 147.404 210">
  <desc lang="de">Feuerwehrzeichen PV-Anlage mit Batterie</desc>
  <rect x="0" y="0" width="147.404" height="210" fill="#ecece7" stroke="none" />
  <g stroke-width="2">
    <path
      fill="none" stroke="#000000" stroke-width="1.5"
      d="M139.404,34 a33,33 0 0 1 -32.292,-26.2" />
    <path
       fill="none" stroke="#000000" stroke-linecap="round" stroke-width="1"
       d="M135.777,37.822 L134.601,49.764 M128.663,36.407 L123.438,53.632 M121.962,33.631 L116.306,44.214 M115.931,29.601 L104.512,43.516 M110.803,24.473 L101.526,32.085 M106.773,18.442 L90.898,26.927 M103.997,11.741 L92.514,15.224 " />
    <path
     fill="#a92121" stroke="none"
     d="M73.702,1 h72.702 v208 h-145.404 v-208 h72.702 v7 h-65.702 v194 h131.404 v-194 h-65.702 z" />
    <path
       fill="#a92121" stroke="none"
       d="M7.9,181 h131.60399999999998 v7 h-131.60399999999998 z" />
    <text x="73.702" y="199" text-anchor="middle" font-family="sans-serif" font-size="12">mit Notstrom</text>
    <path
       fill="none" stroke="#C0C0C0" stroke-width="0.5"
       d="M87.949,74.594 l15.75,-7.769 M83.57,67.904 l15.75,-7.222 M96.264,79.205 l-13.135,-19.661 M100.202,77.127 l-13.135,-19.251 M104.14,75.048 l-13.135,-18.841 M70.099,83.398 l15.75,-7.769 M65.72,76.089 l15.75,-7.222 M78.415,88.629 l-13.135,-21.518 M82.352,86.55 l-13.135,-21.109 M86.29,84.471 l-13.135,-20.699 M102.934,97.491 l15.75,-9.638 M98.555,90.801 l15.75,-9.092 M111.249,101.635 l-13.135,-19.661 M115.187,99.089 l-13.135,-19.251 M119.125,96.543 l-13.135,-18.841 M85.084,108.415 l15.75,-9.638 M80.705,101.105 l15.75,-9.092 M93.4,113.178 l-13.135,-21.518 M97.337,110.632 l-13.135,-21.109 M101.275,108.086 l-13.135,-20.699 " />
    <path
       fill="rgba(192,192,192,0.50)" stroke="#808080" stroke-width="1"
       d="M92.327,81.284 l15.75,-8.315 l-13.135,-18.432 l-15.75,6.676 z M74.477,90.708 l15.75,-8.315 l-13.135,-20.289 l-15.75,6.676 z M107.312,104.181 l15.75,-10.185 l-13.135,-18.432 l-15.75,8.546 z M89.462,115.724 l15.75,-10.185 l-13.135,-20.289 l-15.75,8.546 z " />
    <path
       fill="none" stroke="#808080" stroke-width="1"
       d="M100.202,77.127 l1.97,2.888 M82.352,86.55 l1.97,3.166 M115.187,99.089 l1.97,2.888 L108.232,107.887 M97.337,110.632 l1.97,3.166 L108.232,107.887 M108.297,107.987 l2.405,3.695" />
    <path
       fill="none" stroke="#000000"
       d="M15.702,173 h74 l42,-36.1136 v-39.5227 l-37.0,-50.6892 l-42,16.3256 l-37.0,63 z m74,0 v-47 l-37.0,-63 m37.0,63 l42,-28.6364" />
    <text x="52.702" y="121" fill="#000000" text-anchor="middle" font-family="sans-serif" font-size="28" font-weight="500">PV</text>
    <text x="52.702" y="136" fill="#000000" text-anchor="middle" font-family="sans-serif" font-size="18" font-weight="500">Battery</text>
    <path
       fill="rgba(192,192,192,0.50)" stroke="#000000"
       d="M32.702,166 h40.0 v-21.0 h-40.0 z" />
    <path
       fill="none" stroke="#000000"
       d="M35.702,145.0 v-3 h1.5 v3 m31.0,0 v-3 h1.5 v3 m0,6 h-6 m-22.0,0 h-6 m3,-3 v6" />
    <path stroke="none" fill="#000000" d="M110.237,116.667 l-5.728157,23.182071 l8.378181,-9.707235 l-1.792632,14.27614 l-1.712784,-1.400331 l1.320057,7.380303 l4.803541,-10.026894 l-2.432784,3.076949 l5.050966,-21.844098 l-9.032729,10.782659 l6.61091,-19.239956 l-5.46457,3.520394 Z" />
  </g>
</svg>
