<?xml version="1.0" encoding="UTF-8" standalone="no"?>
<!DOCTYPE svg PUBLIC "-//W3C//DTD SVG 1.1//EN" "http://www.w3.org/Graphics/SVG/1.1/DTD/svg11.dtd">
<svg xmlns="http://www.w3.org/2000/svg" version="1.1" width="146mm" height="188mm" viewBox="0 0 163.085 210">
  <desc lang="de">Feuerwehrzeichen PV-Anlage</desc>
  <rect x="0" y="0" width="163.085" height="210" fill="#ecece7" stroke="none" />
  <g stroke-width="2">
    <path
      fill="none" stroke="#000000" stroke-width="1.5"
      d="M155.085,34 a33,33 0 0 1 -32.292,-26.2" />
    <path
       fill="none" stroke="#000000" stroke-linecap="round" stroke-width="1"
       d="M151.458,37.822 L150.282,49.764 M144.344,36.407 L139.119,53.632 M137.643,33.631 L131.987,44.214 M131.612,29.601 L120.193,43.516 M126.484,24.473 L117.207,32.085 M122.454,18.442 L106.579,26.927 M119.678,11.741 L108.195,15.224 " />
    <path
     fill="#a92121" stroke="none"
     d="M81.5425,1 h80.5425 v208 h-161.085 v-208 h80.5425 v7 h-73.5425 v194 h147.085 v-194 h-73.5425 z" />
    <path
       fill="none" stroke="#C0C0C0" stroke-width="0.5"
       d="M95.789,89.594 l15.75,-7.769 M91.411,82.904 l15.75,-7.222 M104.105,94.205 l-13.135,-19.661 M108.043,92.127 l-13.135,-19.251 M111.98,90.048 l-13.135,-18.841 M77.939,98.398 l15.75,-7.769 M73.561,91.089 l15.75,-7.222 M86.255,103.629 l-13.135,-21.518 M90.193,101.55 l-13.135,-21.109 M94.13,99.471 l-13.135,-20.699 M110.774,112.491 l15.75,-9.638 M106.396,105.801 l15.75,-9.092 M119.09,116.635 l-13.135,-19.661 M123.028,114.089 l-13.135,-19.251 M126.965,111.543 l-13.135,-18.841 M92.924,123.415 l15.75,-9.638 M88.546,116.105 l15.75,-9.092 M101.24,128.178 l-13.135,-21.518 M105.178,125.632 l-13.135,-21.109 M109.115,123.086 l-13.135,-20.699 " />
    <path
       fill="rgba(192,192,192,0.50)" stroke="#808080" stroke-width="1"
       d="M100.168,96.284 l15.75,-8.315 l-13.135,-18.432 l-15.75,6.676 z M82.318,105.708 l15.75,-8.315 l-13.135,-20.289 l-15.75,6.676 z M115.153,119.181 l15.75,-10.185 l-13.135,-18.432 l-15.75,8.546 z M97.303,130.724 l15.75,-10.185 l-13.135,-20.289 l-15.75,8.546 z " />
    <path
       fill="none" stroke="#808080" stroke-width="1"
       d="M108.043,92.127 l1.97,2.888 M90.193,101.55 l1.97,3.166 M123.028,114.089 l1.97,2.888 L116.073,122.887 M105.178,125.632 l1.97,3.166 L116.073,122.887 M116.138,122.987 l2.405,3.695" />
    <path
       fill="none" stroke="#000000"
       d="M23.543,188 h74 l42,-36.1136 v-39.5227 l-37.0,-50.6892 l-42,16.3256 l-37.0,63 z m74,0 v-47 l-37.0,-63 m37.0,63 l42,-28.6364" />
    <text x="60.543" y="171" fill="#000000" text-anchor="middle" font-family="sans-serif" font-size="40" font-weight="700">PV</text>
    <path stroke="none" fill="#000000" d="M118.078,131.667 l-5.728157,23.182071 l8.378181,-9.707235 l-1.792632,14.27614 l-1.712784,-1.400331 l1.320057,7.380303 l4.803541,-10.026894 l-2.432784,3.076949 l5.050966,-21.844098 l-9.032729,10.782659 l6.61091,-19.239956 l-5.46457,3.520394 Z" />
  </g>
</svg>
