<?xml version="1.0" encoding="UTF-8" standalone="no"?>
<!DOCTYPE svg PUBLIC "-//W3C//DTD SVG 1.1//EN" "http://www.w3.org/Graphics/SVG/1.1/DTD/svg11.dtd">
<svg xmlns="http://www.w3.org/2000/svg" version="1.1" width="128" height="100" viewBox="-64 -50 128 100"><g stroke-width="3"><path stroke-width="6" stroke="#66a1ba" fill="none" d="M-60,-15 h40 a12,12 0 1 0 -12,-12 M-60,0 h75 a12,12 0 1 0 -12,-12 M-60,15 h57.5 a12,12 0 1 1 -12,12" /><path stroke="#66a1ba" stroke-width="1.5" stroke-linecap="round" fill="none" d="M 30,20 l0.0,20.0 m-8.66025404,-15.0 l17.32050808,10.0 m-17.32050808,-0.0 l17.32050808,-10.0 m-8.66025404,-5.0 m2.88675135,1.66666667 l-2.88675135,1.66666667 l-2.88675135,-1.66666667 m2.88675135,-1.66666667 m-8.66025404,5.0 m2.88675135,-1.66666667 l-0.0,3.33333333 l-2.88675135,1.66666667 m0.0,-3.33333333 m-0.0,10.0 m0.0,-3.33333333 l2.88675135,1.66666667 l0.0,3.33333333 m-2.88675135,-1.66666667 m8.66025404,5.0 m-2.88675135,-1.66666667 l2.88675135,-1.66666667 l2.88675135,1.66666667 m-2.88675135,1.66666667 m8.66025404,-5.0 m-2.88675135,1.66666667 l0.0,-3.33333333 l2.88675135,-1.66666667 m-0.0,3.33333333 m0.0,-10.0 m-0.0,3.33333333 l-2.88675135,-1.66666667 l-0.0,-3.33333333 m2.88675135,1.66666667 " /><path stroke="#66a1ba" stroke-width="1.5" stroke-linecap="round" fill="none" d="M 50,-5 l0.0,20.0 m-8.66025404,-15.0 l17.32050808,10.0 m-17.32050808,-0.0 l17.32050808,-10.0 m-8.66025404,-5.0 m2.88675135,1.66666667 l-2.88675135,1.66666667 l-2.88675135,-1.66666667 m2.88675135,-1.66666667 m-8.66025404,5.0 m2.88675135,-1.66666667 l-0.0,3.33333333 l-2.88675135,1.66666667 m0.0,-3.33333333 m-0.0,10.0 m0.0,-3.33333333 l2.88675135,1.66666667 l0.0,3.33333333 m-2.88675135,-1.66666667 m8.66025404,5.0 m-2.88675135,-1.66666667 l2.88675135,-1.66666667 l2.88675135,1.66666667 m-2.88675135,1.66666667 m8.66025404,-5.0 m-2.88675135,1.66666667 l0.0,-3.33333333 l2.88675135,-1.66666667 m-0.0,3.33333333 m0.0,-10.0 m-0.0,3.33333333 l-2.88675135,-1.66666667 l-0.0,-3.33333333 m2.88675135,1.66666667 " /><path stroke="#66a1ba" stroke-width="1.5" stroke-linecap="round" fill="none" d="M 42,-40 l0.0,20.0 m-8.66025404,-15.0 l17.32050808,10.0 m-17.32050808,-0.0 l17.32050808,-10.0 m-8.66025404,-5.0 m2.88675135,1.66666667 l-2.88675135,1.66666667 l-2.88675135,-1.66666667 m2.88675135,-1.66666667 m-8.66025404,5.0 m2.88675135,-1.66666667 l-0.0,3.33333333 l-2.88675135,1.66666667 m0.0,-3.33333333 m-0.0,10.0 m0.0,-3.33333333 l2.88675135,1.66666667 l0.0,3.33333333 m-2.88675135,-1.66666667 m8.66025404,5.0 m-2.88675135,-1.66666667 l2.88675135,-1.66666667 l2.88675135,1.66666667 m-2.88675135,1.66666667 m8.66025404,-5.0 m-2.88675135,1.66666667 l0.0,-3.33333333 l2.88675135,-1.66666667 m-0.0,3.33333333 m0.0,-10.0 m-0.0,3.33333333 l-2.88675135,-1.66666667 l-0.0,-3.33333333 m2.88675135,1.66666667 " /></g></svg>
