<?xml version="1.0" encoding="UTF-8" standalone="no"?>
<!DOCTYPE svg PUBLIC "-//W3C//DTD SVG 1.1//EN" "http://www.w3.org/Graphics/SVG/1.1/DTD/svg11.dtd">
<svg xmlns="http://www.w3.org/2000/svg" version="1.1" width="128" height="100" viewBox="-64 -50 128 100"><g stroke-width="3"><g stroke="#f6bc68"><circle cx="-21" cy="-6" r="18" fill="none" /><path d="M 3.0,-6.0 L 17.0,-6.0 M -4.02943725152286,10.97056274847714 L 5.87005768508881,20.8700576850888 M -21.0,18.0 L -21.0,32.0 M -37.97056274847714,10.97056274847714 L -47.8700576850888,20.87005768508881 M -45.0,-6.0 L -59.0,-6.0 M -37.97056274847714,-22.97056274847714 L -47.87005768508881,-32.8700576850888 M -21.0,-30.0 L -21.00000000000001,-44.0 M -4.02943725152286,-22.97056274847714 L 5.8700576850888,-32.87005768508881 " /></g><path stroke-width="3.0" stroke="#404040" fill="none" d="M13,16.5 h20.0 a6.0,6.0 0 1 0 -6.0,-6.0 M13,24 h37.5 a6.0,6.0 0 1 0 -6.0,-6.0 M13,31.5 h28.75 a6.0,6.0 0 1 1 -6.0,6.0" /></g></svg>
