<?xml version="1.0" encoding="UTF-8" standalone="no"?> <!DOCTYPE svg PUBLIC "-//W3C//DTD SVG 1.1//EN" "http://www.w3.org/Graphics/SVG/1.1/DTD/svg11.dtd"> <svg xmlns="http://www.w3.org/2000/svg" version="1.1" width="128" height="100" viewBox="-64 -50 128 100"><g stroke-width="3"><path stroke="#828487" fill="none" d="M -26.349999999999998,4 m 3.4,0 h -3.4 a17.0,17.0 0 1 1 4.1482281485,-33.486121535 a20.4,20.4 0 0 1 36.7205047215,-8.067213252 a13.8125,13.8125 0 0 1 14.381267130000001,8.403334786999999 a17.0,17.0 0 0 1 -5.3082483,33.15 h -3.4" /><path stroke="none" fill="#66a1ba" d="M -27,-7 h 5 l 18.7,25.5 h -5 l -18.7,-25.5 z m 15,0 h 5 l 18.7,25.5 h -5 l -18.7,-25.5 z m 15,0 h 5 l 18.7,25.5 h -5 l -18.7,-25.5 z " /><path stroke="none" fill="#000000" d="M-9.42235138,48 l8.54455967,-4.047423 a6.04100450,6.04100450 0 0 0 2.54603347,-8.64621208 l-3.23725145,-5.21347156 a2.74580363,2.74580363 0 0 1 0.78256116,-3.71485342 l4.93895246,-3.37803994 h-1.38888889 l-5.10795449,2.93585208 a4.68254091,4.68254091 0 0 0 -2.09563466,5.5796135 l2.27226862,6.62156404 a3.29583971,3.29583971 0 0 1 -1.84474537,4.10998876 l-13.74323385,5.75298161 z m33.33333333,0 l1.22771241,-1.22771241 a6.20359314,6.20359314 0 0 0 -1.28480621,-9.75907203 l-13.55967183,-7.82868018 a3.22628070,3.22628070 0 0 1 -1.41857181,-3.89749403 l0.83241498,-2.28704135 h-1.38888889 l-0.68119443,1.08342259 a4.68254091,4.68254091 0 0 0 1.30173924,6.30605466 l12.49300857,8.59055233 a2.68888799,2.68888799 0 0 1 0.13365758,4.33313596 l-5.98873292,4.68683446 z" /><path stroke="#66a1ba" stroke-width="1.2" stroke-linecap="round" fill="none" d="M -17,26 l0.0,16.0 m-6.92820323,-12.0 l13.85640646,8.0 m-13.85640646,-0.0 l13.85640646,-8.0 m-6.92820323,-4.0 m2.30940108,1.33333333 l-2.30940108,1.33333333 l-2.30940108,-1.33333333 m2.30940108,-1.33333333 m-6.92820323,4.0 m2.30940108,-1.33333333 l-0.0,2.66666667 l-2.30940108,1.33333333 m0.0,-2.66666667 m-0.0,8.0 m0.0,-2.66666667 l2.30940108,1.33333333 l0.0,2.66666667 m-2.30940108,-1.33333333 m6.92820323,4.0 m-2.30940108,-1.33333333 l2.30940108,-1.33333333 l2.30940108,1.33333333 m-2.30940108,1.33333333 m6.92820323,-4.0 m-2.30940108,1.33333333 l0.0,-2.66666667 l2.30940108,-1.33333333 m-0.0,2.66666667 m0.0,-8.0 m-0.0,2.66666667 l-2.30940108,-1.33333333 l-0.0,-2.66666667 m2.30940108,1.33333333 " /></g></svg>