<?xml version="1.0" encoding="UTF-8" standalone="no"?> <!DOCTYPE svg PUBLIC "-//W3C//DTD SVG 1.1//EN" "http://www.w3.org/Graphics/SVG/1.1/DTD/svg11.dtd"> <svg xmlns="http://www.w3.org/2000/svg" version="1.1" width="128" height="100" viewBox="-64 -50 128 100"><g stroke-width="3"><path stroke="#828487" fill="none" d="M -38,15 m 4,0 h -4 a 20,20 0 1 1 4.88026841,-39.3954371 a 24,24 0 0 1 43.20059379,-9.49083912 a 16.25,16.25 0 0 1 16.9191378,9.88627622 a 20,20 0 0 1 -6.244998,39h -4" /><path stroke="none" fill="#66a1ba" d="M -35,3 h 5 l 22.0,30 h -5 l -22.0,-30 z m 15,0 h 5 l 22.0,30 h -5 l -22.0,-30 z m 15,0 h 5 l 22.0,30 h -5 l -22.0,-30 z " /><path stroke="#F0F0F0" stroke-width="8" stroke-linejoin="round" fill="#F0F0F0" d="M10,42 l21.0,-36.37306696 l21.0,36.37306696 z" /><path stroke="#b52126" stroke-width="6" stroke-linejoin="round" fill="none" d="M10,42 l21.0,-36.37306696 l21.0,36.37306696 z" /><g transform="scale(0.5)"><path stroke="none" fill="#000000" d="M46.97764862,74 l8.54455967,-4.047423 a6.04100450,6.04100450 0 0 0 2.54603347,-8.64621208 l-3.23725145,-5.21347156 a2.74580363,2.74580363 0 0 1 0.78256116,-3.71485342 l4.93895246,-3.37803994 h-1.38888889 l-5.10795449,2.93585208 a4.68254091,4.68254091 0 0 0 -2.09563466,5.5796135 l2.27226862,6.62156404 a3.29583971,3.29583971 0 0 1 -1.84474537,4.10998876 l-13.74323385,5.75298161 z m33.33333333,0 l1.22771241,-1.22771241 a6.20359314,6.20359314 0 0 0 -1.28480621,-9.75907203 l-13.55967183,-7.82868018 a3.22628070,3.22628070 0 0 1 -1.41857181,-3.89749403 l0.83241498,-2.28704135 h-1.38888889 l-0.68119443,1.08342259 a4.68254091,4.68254091 0 0 0 1.30173924,6.30605466 l12.49300857,8.59055233 a2.68888799,2.68888799 0 0 1 0.13365758,4.33313596 l-5.98873292,4.68683446 z" /></g></g></svg>