<?xml version="1.0" encoding="UTF-8" standalone="no"?>
<!DOCTYPE svg PUBLIC "-//W3C//DTD SVG 1.1//EN" "http://www.w3.org/Graphics/SVG/1.1/DTD/svg11.dtd">
<svg xmlns="http://www.w3.org/2000/svg" version="1.1" width="128" height="100" viewBox="-64 -50 128 100"><g stroke-width="3"><g stroke="#f6bc68"><path fill="none" d="M -3.5930044000000017,4.58219426 A 18,18 0 1 0 -26.26007294,17.21428571 M 3.0,0.0 L 17.0,0.0 M -37.970562748477136,16.97056274847714 L -47.870057685088796,26.87005768508881 M -45.0,0.0 L -59.0,0.0 M -37.970562748477136,-16.97056274847714 L -47.87005768508881,-26.8700576850888 M -21.0,-24.0 L -21.00000000000001,-38.0 M -4.029437251522861,-16.97056274847714 L 5.870057685088799,-26.87005768508881 " /></g><path stroke="#828487" stroke-width="1.8" fill="none" d="M -21,40 a 12,12 0 1 1 2.92816105,-23.63726226 a 14.4,14.4 0 0 1 25.92035627,-5.69450347 a 9.75,9.75 0 0 1 10.15148268,5.93176573 a 12,12 0 0 1 -3.7469988,23.4 z " /><path stroke-width="3.0" stroke="#404040" fill="none" d="M14,-30.5 h20.0 a6.0,6.0 0 1 0 -6.0,-6.0 M14,-23 h37.5 a6.0,6.0 0 1 0 -6.0,-6.0 M14,-15.5 h28.75 a6.0,6.0 0 1 1 -6.0,6.0" /></g></svg>
