<?xml version="1.0" encoding="UTF-8" standalone="no"?>
<!DOCTYPE svg PUBLIC "-//W3C//DTD SVG 1.1//EN" "http://www.w3.org/Graphics/SVG/1.1/DTD/svg11.dtd">
<svg xmlns="http://www.w3.org/2000/svg" version="1.1" width="128" height="100" viewBox="-64 -50 128 100"><g stroke-width="3"><path stroke="#828487" fill="none" d="M -31,14.5 m 2,0 h -2 a 20,20 0 1 1 4.88026841,-39.3954371 a 24,24 0 0 1 43.20059379,-9.49083912 a 16.25,16.25 0 0 1 16.9191378,9.88627622 a 20,20 0 0 1 -6.244998,39h -2" /><path stroke-width="2" stroke-linejoin="round" stroke="#f6bc68" fill="#f6bc68" d="M-4,-1.5 l9.12538211,-21.49805304 l-12.39550268,3.32136493 l7.14107222,-16.82331189 h-8.81753557 l-4.1787982,21.49805304 l12.39550268,-3.32136493 z" /><path stroke-width="3.0" stroke="#a96132" fill="none" d="M-23,18.0 h20.0 a6.0,6.0 0 1 0 -6.0,-6.0 M-23,25.5 h37.5 a6.0,6.0 0 1 0 -6.0,-6.0 M-23,33.0 h28.75 a6.0,6.0 0 1 1 -6.0,6.0" /></g></svg>
