<?xml version="1.0" encoding="UTF-8" standalone="no"?>
<svg
   width="128"
   height="100"
   viewBox="0 0 33.866666 26.458333"
   version="1.1"
   xmlns="http://www.w3.org/2000/svg"
   xmlns:svg="http://www.w3.org/2000/svg">
  <g stroke="#828487" stroke-width="0.79375" fill="none" opacity="1">
    <path
       d="m 18.781008,21.736346 c 0.883318,0.100313 1.532041,0.433538 1.532041,0.829153 0,0.47498 -0.935116,0.860028 -2.08864,0.860028 -1.153524,0 -2.08864,-0.385048 -2.08864,-0.860028 0,-0.237826 0.23444,-0.453105 0.613351,-0.608791"
        />
    <path
       d="m 17.928459,20.113476 c 1.098959,0.122913 1.893144,0.477511 1.893144,0.895784 v 2e-6 c 0,0.520217 -1.228486,0.941936 -2.7439,0.941936 -1.515414,0 -2.743899,-0.421719 -2.743899,-0.941936 0,-0.30122 0.411878,-0.569417 1.052849,-0.741842"
        />
    <path
       d="m 17.815428,18.276219 c 0.861839,0.196635 1.432823,0.540168 1.432824,0.931079 10e-7,0.610689 -1.393506,1.105751 -3.112483,1.105751 -1.718977,0 -3.112484,-0.495062 -3.112483,-1.105751 0,-0.230974 0.199341,-0.445408 0.540238,-0.622773"
        />
    <path
       d="m 17.827856,16.221108 c 0.57708,0.269274 0.92895,0.627367 0.92895,1.020412 0,0.836871 -1.595198,1.515288 -3.562975,1.515288 -1.967776,0 -3.562974,-0.678418 -3.562974,-1.515288 0,-0.3466 0.273624,-0.66602 0.734017,-0.921322"
       />
    <path
       d="m 18.224313,14.075221 c 0.388741,0.27507 0.614403,0.602878 0.614403,0.954797 0,0.972579 -1.723548,1.76101 -3.849651,1.76101 -2.126103,0 -3.84965,-0.788431 -3.84965,-1.76101 0,-0.456534 0.379769,-0.872492 1.002677,-1.185374"
       />
    <path
       d="m 19.911186,11.477491 c 0.309984,0.269261 0.483771,0.57137 0.483771,0.890535 -1e-6,1.130906 -2.181938,2.047686 -4.873494,2.047686 -2.691555,0 -4.873492,-0.91678 -4.873493,-2.047686 0,-0.484809 0.400986,-0.930266 1.07121,-1.281016"
       />
    <path
       d="m 21.681097,8.2508411 c 0.485249,0.358357 0.761545,0.7707038 0.761545,1.2094698 0,1.3797051 -2.732006,2.4981771 -6.102106,2.4981771 -3.370099,0 -6.102105,-1.118472 -6.102105,-2.4981771 0,-0.6128722 0.539075,-1.1741984 1.433693,-1.6088417"
       />
    <ellipse
       style="fill-opacity:1;stroke-miterlimit:4;stroke-dasharray:none;stroke-opacity:1"
       cx="17.118656"
       cy="6.1840129"
       rx="6.7164111"
       ry="2.8258071" />
  </g>
</svg>
