<?xml version="1.0" encoding="UTF-8" standalone="no"?>
<!DOCTYPE svg PUBLIC "-//W3C//DTD SVG 1.1//EN" "http://www.w3.org/Graphics/SVG/1.1/DTD/svg11.dtd">
<svg xmlns="http://www.w3.org/2000/svg" version="1.1" width="380" height="500" viewBox="0 0 38 50">
  <desc>wildfire squirrel, symbol for wildfire protection information</desc>
  <g fill="#A72920" stroke="none" stroke-width="0.2">
    <path
      d="M6.935295,44.711580 a6.482001,6.482001 0 0 0 3.596696,-4.620631 a13.644133,13.644133 0 0 0 -0.068403,-5.557274 a0.228929,0.228929 0 0 0 -0.431365,-0.046626 a27.268676,27.268676 0 0 1 -0.736688,1.752761 a6.001329,6.001329 0 0 1 -1.434802,2.179622 
      a1.630918,1.630918 0 0 1 -2.269422,0.0 a6.001329,6.001329 0 0 1 -1.434802,-2.179622 a27.268676,27.268676 0 0 1 -0.736688,-1.752761 
      a0.228929,0.228929 0 0 0 -0.431365,0.046626 a13.644133,13.644133 0 0 0 -0.068403,5.557274 a6.482001,6.482001 0 0 0 3.596696,4.620631 a0.490562,0.490562 0 0 0 0.418547,0.0 z
      m0.823528,-1.439428 a0.858473,0.858473 0 0 1 0.0,-1.716946 a0.858473,0.858473 0 0 1 0.0,1.716946 z
      m-2.065603,0.0 a0.858473,0.858473 0 0 1 0.0,-1.716946 a0.858473,0.858473 0 0 1 0.0,1.716946 z" />
    <path
      d="M24.055036,43.055735 a60.782331,60.782331 0 0 0 4.481236,-2.812037 a19.228682,19.228682 0 0 0 5.300621,-5.50048 a9.561191,9.561191 0 0 0 1.470733,-5.827300 a12.440101,12.440101 0 0 0 -3.571742,-7.856123
      a45.895191,45.895191 0 0 0 -4.440116,-3.935195 a17.208693,17.208693 0 0 1 -3.911794,-4.274347 a5.768483,5.768483 0 0 1 -0.383815,-5.547223 a13.360628,13.360628 0 0 1 3.27377,-4.393855
      a0.228929,0.228929 0 0 0 -0.147581,-0.400409 a56.106619,56.106619 0 0 0 -5.095566,0.141507 a18.616484,18.616484 0 0 0 -9.558791,3.489555 a11.907618,11.907618 0 0 0 -1.384843,18.113483
      a33.210675,33.210675 0 0 0 8.683288,6.177239 a15.74156,15.74156 0 0 1 5.410498,4.375847 a5.641644,5.641644 0 0 1 0.982336,5.087692 a11.642344,11.642344 0 0 1 -1.327258,2.932109
      a0.163521,0.163521 0 0 0 0.219024,0.229537 z" />
    <path
      d="M16.898712,47.468716 a14.955168,14.955168 0 0 0 5.296982,-4.184626 a3.465218,3.465218 0 0 0 -0.061093,-4.402527 a5.835861,5.835861 0 0 0 -4.178532,-2.059574
      a7.603164,7.603164 0 0 0 -7.225739,4.327981 a0.327042,0.327042 0 0 0 0.276185,0.466993 a7.478184,7.478184 0 0 0 1.382153,-0.047094 a7.921646,7.921646 0 0 1 2.354687,0.053122
      a2.365996,2.365996 0 0 1 1.899268,1.791745 a6.553674,6.553674 0 0 1 -0.192326,3.650614 a0.327042,0.327042 0 0 0 0.448415,0.403367 z" />
    <path
      d="M8.635952,44.829714 
      a3.885224,3.885224 0 0 0 0.706730,0.043170
      a8.990396,8.990396 0 0 0 1.187499,-0.115119
      a7.292493,7.292493 0 0 0 1.249999,-0.321374
      a2.324046,2.324046 0 0 0 1.000963,-0.692471
      a0.841804,0.841804 0 0 0 -0.134683,-1.213347
      a1.417503,1.417503 0 0 0 -0.769819,-0.285571
      a2.774292,2.774292 0 0 0 -0.976268,0.114453
      a2.330031,2.330031 0 0 0 -0.331815,0.129188
      a5.321219,5.321219 0 0 0 -1.971899,1.629073
      a1.381100,1.381100 0 0 0 -0.181861,0.333066
      a0.282251,0.282251 0 0 0 0.221154,0.378933 z" />
  </g>
</svg>
